<?xml version="1.0" encoding="utf-8"?>
<!-- Generator: Adobe Illustrator 23.1.0, SVG Export Plug-In . SVG Version: 6.00 Build 0)  -->
<svg version="1.1" id="Capa_1" xmlns="http://www.w3.org/2000/svg" xmlns:xlink="http://www.w3.org/1999/xlink" x="0px" y="0px"
	 viewBox="0 0 65 60" style="enable-background:new 0 0 65 60;" xml:space="preserve">
<style type="text/css">
	.st0{fill:#F1F2F6;}
</style>
<g>
	<path class="st0" d="M19.56,54.41c-3.6,0-6.54-2.93-6.54-6.54c0-3.61,2.93-6.54,6.54-6.54c3.61,0,6.54,2.93,6.54,6.54
		C26.1,51.48,23.17,54.41,19.56,54.41z"/>
	<path class="st0" d="M48.92,54.41c-3.61,0-6.54-2.93-6.54-6.54c0-3.61,2.93-6.54,6.54-6.54c3.6,0,6.54,2.93,6.54,6.54
		C55.46,51.48,52.52,54.41,48.92,54.41z"/>
	<path class="st0" d="M48.92,48.88h-27.9c-0.78,0-1.52-0.38-1.99-1.01c-0.46-0.64-0.6-1.46-0.36-2.21l3.75-9.21
		c0.21-0.52,0.8-0.76,1.31-0.55c0.52,0.21,0.76,0.8,0.55,1.31l-3.72,9.13c-0.02,0.06,0.01,0.21,0.09,0.33
		c0.08,0.11,0.22,0.18,0.36,0.18h27.9c0.56,0,1.01,0.45,1.01,1.01C49.93,48.43,49.47,48.88,48.92,48.88z"/>
	<g>
		<path class="st0" d="M57.52,12.22c-0.46-0.63-1.2-1.01-1.99-1.01l-42.02,0.01l-1.97-4.52c-0.16-0.37-0.52-0.6-0.92-0.6H1.28
			c-0.56,0-1.01,0.45-1.01,1.01c0,0.56,0.45,1.01,1.01,1.01h8.68l12.32,28.24c0.39,0.9,1.28,1.49,2.26,1.49h24.14
			c1.08,0,2.02-0.69,2.35-1.72l6.85-21.7C58.12,13.68,57.99,12.85,57.52,12.22z M46.63,32.01H26.02c-0.56,0-1.01-0.45-1.01-1.01
			c0-0.56,0.45-1.01,1.01-1.01h20.61c0.56,0,1.01,0.45,1.01,1.01C47.64,31.56,47.19,32.01,46.63,32.01z M48.39,25.64H24.26
			c-0.56,0-1.01-0.45-1.01-1.01c0-0.56,0.45-1.01,1.01-1.01h24.13c0.56,0,1.01,0.45,1.01,1.01C49.4,25.19,48.95,25.64,48.39,25.64z
			 M49.83,19.28H22.81c-0.56,0-1.01-0.45-1.01-1.01c0-0.56,0.45-1.01,1.01-1.01h27.02c0.56,0,1.01,0.45,1.01,1.01
			C50.84,18.83,50.39,19.28,49.83,19.28z"/>
	</g>
	<path class="st0" d="M3.18,7.18c0,0.88-0.71,1.59-1.59,1.59C0.71,8.77,0,8.06,0,7.18C0,6.3,0.71,5.59,1.59,5.59
		C2.47,5.59,3.18,6.3,3.18,7.18z"/>
</g>
</svg>
