<?xml version="1.0" encoding="utf-8"?>
<!-- Generator: Adobe Illustrator 23.1.0, SVG Export Plug-In . SVG Version: 6.00 Build 0)  -->
<svg version="1.1" id="Capa_1" xmlns="http://www.w3.org/2000/svg" xmlns:xlink="http://www.w3.org/1999/xlink" x="0px" y="0px"
	 viewBox="0 0 60 60" style="enable-background:new 0 0 60 60;" xml:space="preserve">
<style type="text/css">
	.st0{fill:#F1F2F6;}
</style>
<path class="st0" d="M48.92,55.4c1.04,0,1.88-0.84,1.88-1.88V33.46h4.93h0.01c1.8,0,3.26-1.46,3.26-3.26c0-1.03-0.48-1.95-1.22-2.55
	l-6.38-5.53v-9.2c0-1.08-0.87-1.95-1.95-1.95h-4.03c-1.08,0-1.95,0.87-1.95,1.95v2.32L32.13,5.39c-1.23-1.06-3.05-1.06-4.27,0
	L2.12,27.74c-1.03,0.89-1.39,2.33-0.92,3.6c0.48,1.27,1.7,2.12,3.05,2.12h4.93v20.07c0,1.04,0.84,1.88,1.88,1.88h11.09V40.81
	c0-2.06,1.67-3.73,3.73-3.73h8.21c2.06,0,3.73,1.67,3.73,3.73V55.4H48.92z"/>
</svg>
