<?xml version="1.0" encoding="utf-8"?>
<!-- Generator: Adobe Illustrator 23.1.0, SVG Export Plug-In . SVG Version: 6.00 Build 0)  -->
<svg version="1.1" id="Capa_1" xmlns="http://www.w3.org/2000/svg" xmlns:xlink="http://www.w3.org/1999/xlink" x="0px" y="0px"
	 viewBox="0 0 60 60" style="enable-background:new 0 0 60 60;" xml:space="preserve">
<style type="text/css">
	.st0{fill:#F1F2F6;}
</style>
<g>
	<path class="st0" d="M-70.29,39.03c0,7.95,6.47,14.42,14.42,14.42c7.95,0,14.42-6.47,14.42-14.42c0-7.95-6.47-14.42-14.42-14.42
		C-63.82,24.61-70.29,31.08-70.29,39.03z M-45.82,38.16c0.48,5.55-3.62,10.44-9.17,10.92c-5.55,0.49-10.44-3.62-10.92-9.17
		c-0.48-5.55,3.62-10.44,9.17-10.92C-51.2,28.5-46.3,32.61-45.82,38.16z"/>
	<path class="st0" d="M-36.1,47l2.38-0.09c0.56-0.02,1.13-0.48,1.28-1.02l0.78-3.77c0.08-0.55-0.26-1.2-0.76-1.44l-2.15-1.04
		c-0.5-0.24-0.91-0.9-0.92-1.45c0,0,0-0.28-0.06-0.93c-0.02-0.22-0.02-0.22-0.02-0.22c-0.03-0.24,0.33-0.69,0.8-0.98l2.02-1.28
		c0.47-0.3,0.74-0.98,0.6-1.52l-1.2-3.66c-0.21-0.52-0.83-0.91-1.38-0.87l-2.39,0.17c-0.55,0.04-1.21-0.26-1.46-0.67
		c-0.25-0.41-0.77-1.84-0.51-2.34l1.11-2.11c0.26-0.49,0.15-1.22-0.24-1.61l-2.87-2.57c-0.44-0.35-1.17-0.37-1.63-0.06l-1.98,1.34
		c-0.46,0.31-1.18,0.38-1.6,0.15c-0.42-0.23-1.59-1.22-1.61-1.77l-0.09-2.38c-0.02-0.56-0.48-1.13-1.01-1.28l-3.77-0.79
		c-0.55-0.08-1.2,0.26-1.44,0.76l-1.04,2.15c-0.24,0.5-0.89,0.92-1.45,0.92c0,0-0.28,0-0.93,0.06c-0.23,0.02-0.23,0.02-0.23,0.02
		c-0.24,0.03-0.69-0.33-0.98-0.8l-1.28-2.03c-0.3-0.47-0.98-0.74-1.52-0.6l-3.66,1.2c-0.52,0.2-0.91,0.83-0.87,1.38l0.17,2.39
		c0.04,0.55-0.26,1.21-0.67,1.46c-0.41,0.25-1.84,0.77-2.33,0.51l-2.11-1.11c-0.49-0.26-1.22-0.15-1.61,0.24l-2.57,2.87
		c-0.34,0.44-0.37,1.17-0.06,1.63l1.34,1.98c0.31,0.46,0.38,1.18,0.15,1.6c-0.23,0.42-1.22,1.59-1.78,1.61l-2.39,0.09
		c-0.55,0.02-1.13,0.48-1.27,1.01l-0.78,3.78c-0.08,0.55,0.26,1.2,0.76,1.44l2.15,1.04c0.5,0.24,0.91,0.89,0.92,1.45
		c0,0,0,0.28,0.06,0.93c0.02,0.23,0.02,0.23,0.02,0.23c0.03,0.24-0.33,0.69-0.8,0.98l-2.02,1.28c-0.47,0.3-0.74,0.98-0.6,1.52
		l1.2,3.66c0.21,0.52,0.83,0.91,1.38,0.87l2.39-0.17c0.55-0.04,1.21,0.26,1.46,0.67c0.25,0.41,0.77,1.84,0.51,2.34l-1.11,2.11
		c-0.26,0.49-0.15,1.22,0.24,1.61l2.87,2.57c0.44,0.34,1.17,0.37,1.63,0.06l1.98-1.34c0.46-0.31,1.18-0.38,1.6-0.15
		c0.42,0.23,1.58,1.22,1.61,1.77l0.09,2.39c0.02,0.55,0.48,1.13,1.01,1.28l3.77,0.78c0.55,0.08,1.2-0.26,1.44-0.76l1.04-2.15
		c0.24-0.5,0.9-0.92,1.45-0.92c0,0,0.28,0,0.93-0.06c0.22-0.02,0.22-0.02,0.22-0.02c0.24-0.03,0.69,0.33,0.98,0.8l1.28,2.03
		c0.3,0.47,0.98,0.74,1.52,0.6l3.66-1.2c0.52-0.2,0.91-0.83,0.87-1.38l-0.17-2.39c-0.04-0.55,0.26-1.21,0.67-1.46
		c0.41-0.25,1.84-0.77,2.33-0.51l2.11,1.11c0.49,0.26,1.22,0.15,1.61-0.24l2.57-2.87c0.35-0.44,0.37-1.17,0.06-1.63l-1.34-1.98
		c-0.31-0.46-0.38-1.18-0.15-1.6C-37.64,48.19-36.65,47.03-36.1,47z M-55.87,55.46c-9.06,0-16.43-7.37-16.43-16.43
		c0-9.06,7.37-16.43,16.43-16.43c9.06,0,16.43,7.37,16.43,16.43C-39.44,48.09-46.81,55.46-55.87,55.46z"/>
</g>
<path id="XMLID_2_" class="st0" d="M12.06,55.32c0,0,8.4,3.77,17.28,3.68c0.17,0,0.67-0.01,0.67-0.01S30.5,59,30.67,59
	c8.88,0.09,17.27-3.68,17.27-3.68c4.02,0.61,6.51-2.89,6.51-2.89l-1.1-8.4c-0.7-7.61-7.7-8.92-9.1-9.36
	c-1.4-0.44-6.47-1.84-7.17-3.41c-0.24-0.52-0.25-1.52-0.17-2.61c2-2.4,3.31-5.43,4.01-7.36c1.03,0.72,1.44-0.17,1.44-0.17
	c3.24-4.72,1.23-6.65,0.79-7c-0.44-0.35-0.87,0.26-0.87,0.26l-0.05,0.13C42.85,1.93,32.1,1.06,30.84,1
	c0.02,0.01-0.11,0.01-0.83,0.03C29.28,1.01,29.15,1.01,29.18,1c-1.24,0.06-12.03,0.91-11.41,13.51l-0.05-0.13
	c0,0-0.44-0.61-0.87-0.26c-0.44,0.35-2.45,2.27,0.79,7c0,0,0.42,0.89,1.44,0.17c0.7,1.93,2.01,4.96,4.01,7.36
	c0.08,1.09,0.06,2.09-0.17,2.61c-0.7,1.58-5.77,2.98-7.17,3.41c-1.4,0.44-8.4,1.75-9.1,9.36l-1.1,8.4
	C5.55,52.43,8.04,55.93,12.06,55.32z"/>
</svg>
