<?xml version="1.0" encoding="utf-8"?>
<!-- Generator: Adobe Illustrator 23.1.0, SVG Export Plug-In . SVG Version: 6.00 Build 0)  -->
<svg version="1.1" id="Capa_1" xmlns="http://www.w3.org/2000/svg" xmlns:xlink="http://www.w3.org/1999/xlink" x="0px" y="0px"
	 viewBox="0 0 60 60" style="enable-background:new 0 0 60 60;" xml:space="preserve">
<style type="text/css">
	.st0{fill:#F1F2F6;}
</style>
<g>
	<path class="st0" d="M33.51,48.8c-2.21,0-4.08,1.42-4.78,3.4H17.68c-0.7-1.97-2.57-3.4-4.78-3.4c-2.81,0-5.1,2.29-5.1,5.1
		c0,2.81,2.29,5.1,5.1,5.1c2.21,0,4.08-1.42,4.78-3.4h11.05c0.7,1.97,2.57,3.4,4.78,3.4c2.81,0,5.1-2.29,5.1-5.1
		c0-0.78-0.19-1.52-0.51-2.18l6.82-6.82c0.66,0.32,1.4,0.51,2.18,0.51c2.81,0,5.1-2.29,5.1-5.1c0-2.81-2.29-5.1-5.1-5.1
		c-2.81,0-5.1,2.29-5.1,5.1c0,0.78,0.19,1.52,0.51,2.18l-6.82,6.82C35.03,49,34.3,48.8,33.51,48.8L33.51,48.8z M33.51,48.8"/>
	<path class="st0" d="M12.89,28.41c0.94,0,1.7-0.76,1.7-1.7c0-0.94-0.76-1.7-1.7-1.7s-1.7,0.76-1.7,1.7
		C11.2,27.65,11.96,28.41,12.89,28.41L12.89,28.41z M12.89,28.41"/>
	<path class="st0" d="M11.47,46.33c0.31,0.48,0.85,0.77,1.42,0.77s1.11-0.29,1.42-0.77l8.55-13.14c1.26-1.93,1.92-4.17,1.92-6.48
		c0-6.56-5.34-11.89-11.89-11.89S1,20.16,1,26.71c0,2.31,0.66,4.55,1.92,6.48L11.47,46.33z M12.89,21.62c2.81,0,5.1,2.29,5.1,5.1
		c0,2.81-2.29,5.1-5.1,5.1s-5.1-2.29-5.1-5.1C7.8,23.9,10.08,21.62,12.89,21.62L12.89,21.62z M12.89,21.62"/>
	<path class="st0" d="M47.11,11.42c-0.94,0-1.7,0.76-1.7,1.7c0,0.94,0.76,1.7,1.7,1.7c0.94,0,1.7-0.76,1.7-1.7
		C48.8,12.18,48.04,11.42,47.11,11.42L47.11,11.42z M47.11,11.42"/>
	<path class="st0" d="M47.11,1c-6.56,0-11.89,5.56-11.89,12.12c0,2.31,0.66,4.55,1.92,6.48l8.55,13.14
		c0.31,0.48,0.85,0.77,1.42,0.77c0.57,0,1.11-0.29,1.42-0.77l8.55-13.14c1.26-1.93,1.92-4.17,1.92-6.48C59,6.56,53.66,1,47.11,1
		L47.11,1z M47.11,18.22c-2.81,0-5.1-2.29-5.1-5.1c0-2.81,2.29-5.1,5.1-5.1c2.81,0,5.1,2.29,5.1,5.1
		C52.2,15.93,49.92,18.22,47.11,18.22L47.11,18.22z M47.11,18.22"/>
</g>
</svg>
