<?xml version="1.0" encoding="utf-8"?>
<!-- Generator: Adobe Illustrator 23.1.0, SVG Export Plug-In . SVG Version: 6.00 Build 0)  -->
<svg version="1.1" id="Capa_1" xmlns="http://www.w3.org/2000/svg" xmlns:xlink="http://www.w3.org/1999/xlink" x="0px" y="0px"
	 viewBox="0 0 21 20" style="enable-background:new 0 0 21 20;" xml:space="preserve">
<style type="text/css">
	.st0{fill:#FED428;}
</style>
<title>menu_navigation_grid [#1529]</title>
<desc>Created with Sketch.</desc>
<path class="st0" d="M6.3,11H3.2C1.4,11,0,12.3,0,14v3c0,1.7,1.4,3,3.2,3h3.1c1.7,0,3.2-1.3,3.2-3v-3C9.5,12.3,8,11,6.3,11z"/>
<path class="st0" d="M17.8,0h-3.1c-1.7,0-3.2,1.3-3.2,3v3c0,1.7,1.4,3,3.2,3h3.1C19.6,9,21,7.7,21,6V3C21,1.3,19.6,0,17.8,0z"/>
<path class="st0" d="M17.8,11h-3.1c-1.7,0-3.2,1.3-3.2,3v3c0,1.7,1.4,3,3.2,3h3.1c1.7,0,3.2-1.3,3.2-3v-3C21,12.3,19.6,11,17.8,11z"
	/>
</svg>
